<svg xmlns="http://www.w3.org/2000/svg" width="80" height="80" viewBox="0 0 60 60">
    <defs>
        <style>
            .cls-1{fill:#ef233c;fill-rule:evenodd}
        </style>
    </defs>
    <path id="icon" class="cls-1" d="M862.794 2271.13h-2.689a15.839 15.839 0 0 1-1.055 2.56l1.9 1.92a1.223 1.223 0 0 1 0 1.72l-5.117 5.15c-.031.03-.065.06-.1.09v1.98a1.216 1.216 0 0 1-1.206 1.22h-3.21c-.135.61-.3 1.22-.484 1.82l2.777 1.62a1.2 1.2 0 0 1 .562.73 1.237 1.237 0 0 1-.12.93l-3.57 6.22a1.2 1.2 0 0 1-1.648.44l-2.783-1.61c-.423.46-.866.91-1.326 1.33l1.606 2.8a1.237 1.237 0 0 1 .121.93 1.2 1.2 0 0 1-.562.73l-6.182 3.6a1.209 1.209 0 0 1-1.648-.45l-1.6-2.79c-.6.18-1.2.35-1.815.48v3.23a1.216 1.216 0 0 1-1.206 1.22H826.3a1.216 1.216 0 0 1-1.207-1.22v-3.23c-.612-.13-1.219-.3-1.815-.48l-1.6 2.79a1.208 1.208 0 0 1-1.647.45l-6.183-3.6a1.2 1.2 0 0 1-.562-.73 1.242 1.242 0 0 1 .121-.93l1.607-2.8c-.461-.42-.9-.87-1.327-1.33l-2.783 1.61a1.2 1.2 0 0 1-1.648-.44l-3.569-6.22a1.237 1.237 0 0 1-.121-.93 1.2 1.2 0 0 1 .562-.73l2.778-1.62c-.187-.6-.349-1.21-.485-1.82h-3.209a1.216 1.216 0 0 1-1.206-1.22v-7.18a1.209 1.209 0 0 1 1.206-1.22h3.209q.2-.93.485-1.83l-2.778-1.61a1.221 1.221 0 0 1-.441-1.66l3.569-6.22a1.2 1.2 0 0 1 .733-.57 1.218 1.218 0 0 1 .915.12l2.783 1.62c.423-.46.866-.91 1.327-1.34l-1.607-2.8a1.222 1.222 0 0 1 .442-1.66l6.182-3.59a1.209 1.209 0 0 1 1.648.44l1.6 2.8c.6-.19 1.2-.35 1.816-.49v-3.23a1.207 1.207 0 0 1 1.206-1.21h2.76l4.817-4.85a1.208 1.208 0 0 1 1.706 0l1.9 1.91a16.812 16.812 0 0 1 2.547-1.06v-2.71a1.207 1.207 0 0 1 1.206-1.21h7.238a1.207 1.207 0 0 1 1.206 1.21v2.71a16.758 16.758 0 0 1 2.546 1.06l1.9-1.91a1.208 1.208 0 0 1 1.706 0l5.117 5.15a1.223 1.223 0 0 1 0 1.72l-1.9 1.91a16.051 16.051 0 0 1 1.056 2.57h2.689a1.207 1.207 0 0 1 1.206 1.21v7.29a1.207 1.207 0 0 1-1.207 1.21zm-30.563-13.78H827.5v3.01a1.215 1.215 0 0 1-1 1.2 19.348 19.348 0 0 0-3.363.9 1.2 1.2 0 0 1-1.459-.53l-1.5-2.61-4.093 2.38 1.5 2.61a1.222 1.222 0 0 1-.271 1.54 19.547 19.547 0 0 0-2.461 2.48 1.2 1.2 0 0 1-1.528.27l-2.6-1.51-2.363 4.12 2.59 1.51a1.215 1.215 0 0 1 .53 1.47 19.665 19.665 0 0 0-.9 3.38 1.213 1.213 0 0 1-1.189 1.01h-2.994v4.76h2.994a1.2 1.2 0 0 1 1.189 1 19.534 19.534 0 0 0 .9 3.39 1.224 1.224 0 0 1-.53 1.47l-2.59 1.5 2.363 4.12 2.6-1.5a1.2 1.2 0 0 1 1.528.27 20.227 20.227 0 0 0 2.461 2.48 1.206 1.206 0 0 1 .271 1.53l-1.5 2.62 4.093 2.38 1.5-2.61a1.194 1.194 0 0 1 1.459-.53 19.324 19.324 0 0 0 3.363.9 1.215 1.215 0 0 1 1 1.2v3.01h4.727v-3.01a1.215 1.215 0 0 1 1-1.2 19.348 19.348 0 0 0 3.363-.9 1.194 1.194 0 0 1 1.459.53l1.5 2.61 4.093-2.38-1.5-2.62a1.206 1.206 0 0 1 .271-1.53 20.227 20.227 0 0 0 2.461-2.48 1.2 1.2 0 0 1 1.528-.27l2.6 1.5 2.363-4.12-2.59-1.5a1.224 1.224 0 0 1-.53-1.47 19.624 19.624 0 0 0 .9-3.39 1.2 1.2 0 0 1 1.189-1h2.994v-4.76h-2.994a1.213 1.213 0 0 1-1.189-1.01 19.756 19.756 0 0 0-.9-3.38 1.215 1.215 0 0 1 .53-1.47l2.59-1.51-2.365-4.12-2.6 1.51a1.2 1.2 0 0 1-1.528-.27 19.547 19.547 0 0 0-2.461-2.48 1.222 1.222 0 0 1-.271-1.54l1.5-2.61-4.093-2.38-1.5 2.61a1.205 1.205 0 0 1-1.459.53 19.348 19.348 0 0 0-3.363-.9 1.215 1.215 0 0 1-1-1.2v-3.01zm29.356 6.5h-2.393a1.209 1.209 0 0 1-1.17-.92 13.591 13.591 0 0 0-1.507-3.66 1.232 1.232 0 0 1 .182-1.49l1.693-1.7-3.411-3.44-1.693 1.71a1.2 1.2 0 0 1-1.472.18 13.466 13.466 0 0 0-3.636-1.51 1.216 1.216 0 0 1-.912-1.18v-2.41h-4.825v2.41a1.216 1.216 0 0 1-.912 1.18 13.478 13.478 0 0 0-3.638 1.51 1.2 1.2 0 0 1-1.471-.18l-1.694-1.71-2.258 2.28h.967a1.207 1.207 0 0 1 1.206 1.21v3.23c.613.14 1.219.3 1.816.49l1.6-2.8a1.209 1.209 0 0 1 1.648-.44l6.183 3.59a1.223 1.223 0 0 1 .441 1.66l-1.607 2.8c.461.43.9.88 1.327 1.34l2.783-1.62a1.209 1.209 0 0 1 1.648.45l3.569 6.22a1.221 1.221 0 0 1-.441 1.66l-2.778 1.61q.281.9.485 1.83h3.209a1.209 1.209 0 0 1 1.206 1.22v1.77l2.658-2.67-1.694-1.71a1.216 1.216 0 0 1-.182-1.48 13.656 13.656 0 0 0 1.507-3.66 1.209 1.209 0 0 1 1.17-.92h2.393v-4.85zm-19.48 17.11a12.24 12.24 0 1 1-12.24-12.32 12.3 12.3 0 0 1 12.24 12.32zm-12.24-9.89a9.89 9.89 0 1 0 9.828 9.89 9.865 9.865 0 0 0-9.828-9.89zm0 18.39a8.505 8.505 0 1 1 8.45-8.5 8.482 8.482 0 0 1-8.45 8.5zm0-14.58a6.08 6.08 0 1 0 6.038 6.08 6.068 6.068 0 0 0-6.038-6.08z" transform="translate(-804 -2247)"/>
</svg>
