<svg xmlns="http://www.w3.org/2000/svg" width="55.562" height="40.25" viewBox="0 0 55.562 40.25">
  <metadata><?xpacket begin="﻿" id="W5M0MpCehiHzreSzNTczkc9d"?>
<x:xmpmeta xmlns:x="adobe:ns:meta/" x:xmptk="Adobe XMP Core 5.6-c140 79.160451, 2017/05/06-01:08:21        ">
   <rdf:RDF xmlns:rdf="http://www.w3.org/1999/02/22-rdf-syntax-ns#">
      <rdf:Description rdf:about=""/>
   </rdf:RDF>
</x:xmpmeta>
                                                                                                    
                                                                                                    
                                                                                                    
                                                                                                    
                                                                                                    
                                                                                                    
                                                                                                    
                                                                                                    
                                                                                                    
                                                                                                    
                                                                                                    
                                                                                                    
                                                                                                    
                                                                                                    
                                                                                                    
                                                                                                    
                                                                                                    
                                                                                                    
                                                                                                    
                                                                                                    
                           
<?xpacket end="w"?></metadata>
<defs>
    <style>
      .cls-1 {
        fill: #8d99ae;
        fill-rule: evenodd;
      }
    </style>
  </defs>
  <path id="icon" class="cls-1" d="M897.836,3760.5a14.774,14.774,0,0,1-8.252,4.87,17.15,17.15,0,0,1-31.934,0,14.83,14.83,0,1,1,14.71-23.54c0.415-.03.834-0.04,1.257-0.04s0.843,0.01,1.258.04A14.8,14.8,0,1,1,897.836,3760.5Zm-7.045-1.47c0,0.16,0,.33-0.008.49a9.664,9.664,0,0,0,3.5-2.86,9.766,9.766,0,0,0,1.306-2.35l-0.695-.18a1.04,1.04,0,0,1-.725-1.27,1.026,1.026,0,0,1,1.256-.72l0.692,0.18a9.771,9.771,0,0,0,0-2.97l-0.691.19a1.212,1.212,0,0,1-.266.03,1.028,1.028,0,0,1-.265-2.02l0.692-.19a9.608,9.608,0,0,0-1.483-2.57l-0.5.5a1.025,1.025,0,1,1-1.45-1.45l0.5-.51a9.685,9.685,0,0,0-2.563-1.49l-0.186.7a1.024,1.024,0,0,1-.99.76,1.212,1.212,0,0,1-.266-0.03,1.04,1.04,0,0,1-.725-1.27l0.185-.69a10.025,10.025,0,0,0-2.962,0l0.185,0.69a1.025,1.025,0,0,1-.725,1.26,0.826,0.826,0,0,1-.266.04,1.025,1.025,0,0,1-.991-0.76l-0.185-.7a9.435,9.435,0,0,0-2.519,1.46,17.217,17.217,0,0,1,6.184,4.72l1.774-2.78a1.03,1.03,0,0,1,1.417-.32,1.042,1.042,0,0,1,.311,1.43l-1.757,2.75a2.605,2.605,0,0,1,.659,1.74,2.651,2.651,0,0,1-.114.76A17.191,17.191,0,0,1,890.791,3759.03Zm-32.669-7.43a2.618,2.618,0,0,1,.518-2.47l-1.934-2.78a1.027,1.027,0,0,1,1.681-1.18l2,2.88a17.2,17.2,0,0,1,6.209-4.75,9.435,9.435,0,0,0-2.519-1.46l-0.185.7a1.025,1.025,0,0,1-.99.76,1.221,1.221,0,0,1-.267-0.03,1.04,1.04,0,0,1-.725-1.27l0.185-.69a10.025,10.025,0,0,0-2.962,0l0.186,0.69a1.041,1.041,0,0,1-.726,1.27,1.212,1.212,0,0,1-.266.03,1.024,1.024,0,0,1-.99-0.76l-0.186-.7a9.706,9.706,0,0,0-2.564,1.49l0.506,0.51a1.026,1.026,0,1,1-1.451,1.45l-0.505-.5a9.584,9.584,0,0,0-1.484,2.57l0.693,0.19a1.028,1.028,0,0,1-.265,2.02,1.212,1.212,0,0,1-.266-0.03l-0.692-.19a9.769,9.769,0,0,0-.114,1.49,9.638,9.638,0,0,0,.114,1.48l0.692-.18a1.026,1.026,0,0,1,1.256.72,1.04,1.04,0,0,1-.725,1.27l-0.7.18a9.6,9.6,0,0,0,4.8,5.21c0-.16-0.007-0.33-0.007-0.49A17.191,17.191,0,0,1,858.122,3751.6Zm2.492-13.54a12.786,12.786,0,0,0-3.693,25.01c-0.1-.41-0.178-0.81-0.246-1.22a11.839,11.839,0,0,1-5.353-3.95,11.671,11.671,0,0,1,17.454-15.41c0.393-.12.792-0.22,1.2-0.31A12.741,12.741,0,0,0,860.614,3738.06Zm13,5.79a15.175,15.175,0,1,0,15.122,15.18A15.169,15.169,0,0,0,873.617,3743.85Zm13-5.79a12.741,12.741,0,0,0-9.357,4.12c0.4,0.09.8,0.19,1.195,0.31a11.621,11.621,0,0,1,16.377.05c0.009,0.01.019,0.01,0.028,0.02l0.025,0.03a11.729,11.729,0,0,1,1.024,15.31,11.839,11.839,0,0,1-5.353,3.95c-0.068.41-.15,0.81-0.246,1.22A12.786,12.786,0,0,0,886.62,3738.06Zm-13,35.28a14.315,14.315,0,1,1,14.266-14.31A14.3,14.3,0,0,1,873.617,3773.34Zm10.3-18.15,1.178-.32a12.254,12.254,0,0,0-2.161-3.74l-0.858.86a1.027,1.027,0,0,1-1.451,0,1.038,1.038,0,0,1,0-1.46l0.858-.86a12.232,12.232,0,0,0-3.73-2.17l-0.316,1.18a1.033,1.033,0,0,1-.99.77,0.822,0.822,0,0,1-.266-0.04,1.03,1.03,0,0,1-.726-1.26l0.316-1.18a12.333,12.333,0,0,0-4.313,0l0.316,1.18a1.03,1.03,0,0,1-.726,1.26,0.818,0.818,0,0,1-.266.04,1.033,1.033,0,0,1-.99-0.77l-0.316-1.18a12.22,12.22,0,0,0-3.73,2.17l0.858,0.86a1.038,1.038,0,0,1,0,1.46,1.027,1.027,0,0,1-1.451,0l-0.858-.86a12.233,12.233,0,0,0-2.161,3.74l1.178,0.32a1.028,1.028,0,0,1-.265,2.02,1.212,1.212,0,0,1-.266-0.03l-1.179-.32a12.366,12.366,0,0,0,0,4.33l1.179-.32a1.03,1.03,0,0,1,.531,1.99l-1.178.32a12.191,12.191,0,0,0,22.961,0l-1.178-.32a1.03,1.03,0,0,1,.531-1.99l1.178,0.32a12.366,12.366,0,0,0,0-4.33l-1.178.32a1.212,1.212,0,0,1-.266.03A1.028,1.028,0,0,1,883.92,3755.19ZM876.3,3768.3h-5.357a1.03,1.03,0,0,1,0-2.06H876.3A1.03,1.03,0,0,1,876.3,3768.3Zm-0.358-7.39,0.323,0.54a1.027,1.027,0,1,1-1.76,1.06l-0.323-.54a3.441,3.441,0,0,1-.556.05,3.025,3.025,0,0,1-.729-0.09,2.959,2.959,0,0,1-1.833-1.36,3,3,0,0,1-.336-2.27,3.047,3.047,0,0,1,.572-1.16l-2.981-4.99a1.027,1.027,0,0,1,1.76-1.06l2.981,5a2.987,2.987,0,0,1,3.454,3.66A3.047,3.047,0,0,1,875.938,3760.91Zm-1.523-2.37a0.929,0.929,0,0,0-.572-0.42,0.887,0.887,0,0,0-.228-0.03,1.007,1.007,0,0,0-.477.13,0.947,0.947,0,0,0-.319,1.29,0.929,0.929,0,0,0,.572.42,0.915,0.915,0,0,0,.705-0.1A0.947,0.947,0,0,0,874.415,3758.54Z" transform="translate(-845.844 -3736)"/>
</svg>
