<?xml version="1.0" encoding="UTF-8"?>
<svg width="25px" height="25px" viewBox="0 0 25 25" version="1.1" xmlns="http://www.w3.org/2000/svg" xmlns:xlink="http://www.w3.org/1999/xlink">
    <!-- Generator: Sketch 49.3 (51167) - http://www.bohemiancoding.com/sketch -->
    <title>Untitled</title>
    <desc>Created with Sketch.</desc>
    <defs></defs>
    <g id="Page-1" stroke="none" stroke-width="1" fill="none" fill-rule="evenodd">
        <g id="question-mark">
            <rect id="Rectangle" fill="#8D99AE" x="0" y="0" width="25" height="25" rx="12.5"></rect>
            <path d="M11.9101562,14.5742188 C11.9140625,14.027341 11.9951164,13.6269544 12.1533203,13.3730469 C12.3115242,13.1191394 12.6269508,12.8105487 13.0996094,12.4472656 C13.3769545,12.220702 13.598632,11.9765638 13.7646484,11.7148438 C13.9306649,11.4531237 14.0136719,11.1601579 14.0136719,10.8359375 C14.0136719,10.4765607 13.9189463,10.1953135 13.7294922,9.9921875 C13.5400381,9.78906148 13.269533,9.6875 12.9179688,9.6875 C12.6289048,9.6875 12.3837901,9.77343664 12.1826172,9.9453125 C11.9814443,10.1171884 11.8789063,10.369139 11.875,10.7011719 L10.2109375,10.7011719 L10.1992188,10.6660156 C10.1874999,9.91601188 10.4345678,9.34179887 10.9404297,8.94335938 C11.4462916,8.54491988 12.1054647,8.34570312 12.9179688,8.34570312 C13.7929731,8.34570312 14.4794897,8.5673806 14.9775391,9.01074219 C15.4755884,9.45410378 15.7246094,10.0566368 15.7246094,10.8183594 C15.7246094,11.3144556 15.579103,11.7734354 15.2880859,12.1953125 C14.9970689,12.6171896 14.6328147,12.9707017 14.1953125,13.2558594 C13.9570301,13.439454 13.8007816,13.6240225 13.7265625,13.8095703 C13.6523434,13.9951181 13.6152344,14.2499984 13.6152344,14.5742188 L11.9101562,14.5742188 Z M13.6269531,17 L11.9042969,17 L11.9042969,15.5351562 L13.6269531,15.5351562 L13.6269531,17 Z" id="?" fill="#FFFFFF"></path>
        </g>
    </g>
</svg>