<svg xmlns="http://www.w3.org/2000/svg" width="80" height="80" viewBox="0 0 60 60">
    <defs>
        <style>
            .cls-1{fill:#d90429;fill-rule:evenodd}
        </style>
    </defs>
    <path class="cls-1" d="M51.21 51.21A29.985 29.985 0 1 1 60 30a29.779 29.779 0 0 1-8.79 21.21zM30 2.37A27.625 27.625 0 1 0 57.63 30 27.668 27.668 0 0 0 30 2.37zm0 50.12A22.49 22.49 0 1 1 52.49 30 22.517 22.517 0 0 1 30 52.49zm0-42.6A20.11 20.11 0 1 0 50.11 30 20.131 20.131 0 0 0 30 9.89zm0 38.51A18.4 18.4 0 1 1 48.4 30 18.415 18.415 0 0 1 30 48.4zm11.91-7.68l-6.94-3.49a.8.8 0 0 0-.78.03.776.776 0 0 0-.41.66l-.45 7.76a16.025 16.025 0 0 0 8.58-4.96zm-15.24 4.96l-.45-7.76a.776.776 0 0 0-.41-.66.8.8 0 0 0-.78-.03l-6.94 3.49a16.025 16.025 0 0 0 8.58 4.96zM13.97 30a16 16 0 0 0 .79 4.96l6.49-4.27a.828.828 0 0 0 0-1.38l-6.49-4.27a15.95 15.95 0 0 0-.79 4.96zm4.12-10.72l6.94 3.49a.8.8 0 0 0 .78-.03.776.776 0 0 0 .41-.66l.45-7.76a16.025 16.025 0 0 0-8.58 4.96zm15.24-4.96l.45 7.76a.792.792 0 0 0 .41.66.776.776 0 0 0 .78.02l6.94-3.48a16.025 16.025 0 0 0-8.58-4.96zm10.06 6.87l-7.35 3.7a3.205 3.205 0 0 1-1.44.34 3.281 3.281 0 0 1-1.6-.43 3.2 3.2 0 0 1-1.59-2.59L30.93 14q-.465-.03-.93-.03t-.93.03l-.48 8.21a3.2 3.2 0 0 1-4.63 2.68l-7.35-3.7a16.179 16.179 0 0 0-.93 1.62l6.87 4.52a3.183 3.183 0 0 1 0 5.34l-6.87 4.52a14.986 14.986 0 0 0 .93 1.61l7.35-3.69a3.2 3.2 0 0 1 4.63 2.68l.48 8.21q.465.03.93.03t.93-.03l.48-8.22a3.2 3.2 0 0 1 4.63-2.67l7.35 3.69a14.986 14.986 0 0 0 .93-1.61l-6.87-4.52a3.183 3.183 0 0 1 0-5.34l6.87-4.52a16.179 16.179 0 0 0-.93-1.62zm-4.64 8.12a.828.828 0 0 0 0 1.38l6.49 4.27a15.966 15.966 0 0 0 0-9.92zM30 34.17A4.175 4.175 0 1 1 34.17 30 4.174 4.174 0 0 1 30 34.17zm0-5.97a1.8 1.8 0 1 0 1.8 1.8 1.805 1.805 0 0 0-1.8-1.8z"/>
</svg>
