<svg xmlns="http://www.w3.org/2000/svg" width="126" height="126" viewBox="0 0 126 126">
  <metadata><?xpacket begin="﻿" id="W5M0MpCehiHzreSzNTczkc9d"?>
<x:xmpmeta xmlns:x="adobe:ns:meta/" x:xmptk="Adobe XMP Core 5.6-c140 79.160451, 2017/05/06-01:08:21        ">
   <rdf:RDF xmlns:rdf="http://www.w3.org/1999/02/22-rdf-syntax-ns#">
      <rdf:Description rdf:about=""/>
   </rdf:RDF>
</x:xmpmeta>
                                                                                                    
                                                                                                    
                                                                                                    
                                                                                                    
                                                                                                    
                                                                                                    
                                                                                                    
                                                                                                    
                                                                                                    
                                                                                                    
                                                                                                    
                                                                                                    
                                                                                                    
                                                                                                    
                                                                                                    
                                                                                                    
                                                                                                    
                                                                                                    
                                                                                                    
                                                                                                    
                           
<?xpacket end="w"?></metadata>
<defs>
    <style>
      .cls-1 {
        fill: #43455e;
        fill-rule: evenodd;
      }
    </style>
  </defs>
  <path id="big_ivon" class="cls-1" d="M1808.55,3495.55A63.011,63.011,0,1,1,1827,3451,62.585,62.585,0,0,1,1808.55,3495.55ZM1764,3392.99a58.01,58.01,0,1,0,58.01,58.01A58.072,58.072,0,0,0,1764,3392.99Zm0,105.23a47.225,47.225,0,1,1,47.22-47.22A47.27,47.27,0,0,1,1764,3498.22Zm0-89.46a42.24,42.24,0,1,0,42.24,42.24A42.289,42.289,0,0,0,1764,3408.76Zm0,80.89a38.65,38.65,0,1,1,38.65-38.65A38.7,38.7,0,0,1,1764,3489.65Zm25.01-16.14-14.57-7.32a1.74,1.74,0,0,0-2.51,1.45l-0.94,16.29A33.679,33.679,0,0,0,1789.01,3473.51Zm-32,10.42-0.94-16.29a1.74,1.74,0,0,0-2.51-1.45l-14.57,7.32A33.679,33.679,0,0,0,1757.01,3483.93ZM1730.34,3451a33.516,33.516,0,0,0,1.65,10.41l13.63-8.96a1.738,1.738,0,0,0,0-2.9l-13.63-8.96A33.516,33.516,0,0,0,1730.34,3451Zm8.65-22.51,14.57,7.32a1.7,1.7,0,0,0,1.64-.05,1.681,1.681,0,0,0,.86-1.4l0.95-16.29A33.679,33.679,0,0,0,1738.99,3428.49Zm32-10.42,0.94,16.29a1.74,1.74,0,0,0,2.51,1.45l14.57-7.32A33.679,33.679,0,0,0,1770.99,3418.07Zm21.12,14.44-15.43,7.75a6.718,6.718,0,0,1-9.73-5.61l-1-17.25q-0.96-.06-1.95-0.06c-0.66,0-1.31.02-1.96,0.06l-1,17.25a6.706,6.706,0,0,1-6.7,6.33,6.831,6.831,0,0,1-3.02-.71l-15.43-7.76a33.461,33.461,0,0,0-1.97,3.38l14.44,9.5a6.708,6.708,0,0,1,0,11.22l-14.44,9.5a34.6,34.6,0,0,0,1.97,3.38l15.43-7.75a6.707,6.707,0,0,1,9.72,5.61l1,17.25c0.65,0.04,1.3.06,1.96,0.06s1.31-.02,1.95-0.06l1-17.25a6.728,6.728,0,0,1,9.73-5.62l15.43,7.76a34.6,34.6,0,0,0,1.97-3.38l-14.44-9.5a6.708,6.708,0,0,1,0-11.22l14.44-9.5A33.461,33.461,0,0,0,1792.11,3432.51Zm-9.73,17.04a1.738,1.738,0,0,0,0,2.9l13.63,8.96a33.664,33.664,0,0,0,0-20.82ZM1764,3459.77a8.77,8.77,0,1,1,8.77-8.77A8.787,8.787,0,0,1,1764,3459.77Zm0-12.55a3.78,3.78,0,1,0,3.78,3.78A3.79,3.79,0,0,0,1764,3447.22Z" transform="translate(-1701 -3388)"/>
</svg>
