<svg xmlns="http://www.w3.org/2000/svg" width="64" height="79" viewBox="0 0 64 79">
  <metadata><?xpacket begin="﻿" id="W5M0MpCehiHzreSzNTczkc9d"?>
<x:xmpmeta xmlns:x="adobe:ns:meta/" x:xmptk="Adobe XMP Core 5.6-c140 79.160451, 2017/05/06-01:08:21        ">
   <rdf:RDF xmlns:rdf="http://www.w3.org/1999/02/22-rdf-syntax-ns#">
      <rdf:Description rdf:about=""/>
   </rdf:RDF>
</x:xmpmeta>
                                                                                                    
                                                                                                    
                                                                                                    
                                                                                                    
                                                                                                    
                                                                                                    
                                                                                                    
                                                                                                    
                                                                                                    
                                                                                                    
                                                                                                    
                                                                                                    
                                                                                                    
                                                                                                    
                                                                                                    
                                                                                                    
                                                                                                    
                                                                                                    
                                                                                                    
                                                                                                    
                           
<?xpacket end="w"?></metadata>
<defs>
    <style>
      .cls-1 {
        fill: #fff;
        fill-rule: evenodd;
      }
    </style>
  </defs>
  <path id="icon" class="cls-1" d="M990.93,5197.7c-0.15.42-3.987,10.3-31.932,10.3s-31.783-9.88-31.932-10.3a1.183,1.183,0,0,1-.054-0.59c0.323-2.01,2.15-12.16,6.333-14.96,2.473-1.66,11.231-6.36,14.881-8.3a1.211,1.211,0,0,1,1.315.12,15.811,15.811,0,0,0,6.3,3.03,1.223,1.223,0,0,1,.867.74l2.287,6.01,2.287-6.01a1.221,1.221,0,0,1,.867-0.74,15.807,15.807,0,0,0,6.3-3.03,1.211,1.211,0,0,1,1.315-.12l0.078,0.04c3.692,1.97,12.338,6.57,14.814,8.27,3.632,2.49,5.443,9.5,6.323,14.95A1.183,1.183,0,0,1,990.93,5197.7Zm-12.958-9.17H966.9v2.32h11.068v-2.32Zm-34.728-41.19c0.512-4.12,1.609-6.85,3.5-8.76,2.441-2.47,6.449-3.67,12.253-3.67,7,0,11.293,1.68,13.522,5.27a17.98,17.98,0,0,1,2.205,7.2,4.781,4.781,0,0,0-1.181,3.13v11.16a4.834,4.834,0,0,0,.361,1.83,36.038,36.038,0,0,1-8.726.84c-0.261,0-.526,0-0.8-0.01a4.416,4.416,0,0,0-3.071-1.23h-3.234a4.4,4.4,0,1,0,0,8.8h3.234a4.42,4.42,0,0,0,2.7-.92c0.4,0.01.773,0.01,1.13,0.01,1.518,0,2.938-.05,4.267-0.14-3.635,3.3-7.868,4.8-10.407,4.8-3.862,0-11.642-3.47-15.276-11.46a4.7,4.7,0,0,0,.729-2.52v-11.16A4.8,4.8,0,0,0,943.244,5147.34Zm38.983,16.96h-1.2c-0.075.12-.157,0.23-0.248,0.35-2.128,2.79-7.381,4.19-15.645,4.19-0.644,0-1.311-.01-1.992-0.02a2.274,2.274,0,0,1-1.834.93h-3.234a2.255,2.255,0,1,1,0-4.51h3.234a2.272,2.272,0,0,1,2.009,1.22c0.645,0.02,1.264.02,1.858,0.02,7.331,0,10.872-1.13,12.582-2.25a2.628,2.628,0,0,1-2.061-2.56v-11.16a2.629,2.629,0,0,1,1.294-2.26,21.582,21.582,0,0,0-2.64-9.2c-2.66-4.29-7.539-6.28-15.356-6.28-13.612,0-17.153,6.33-18.019,15.46a2.645,2.645,0,0,1,1.317,2.28v11.16a2.641,2.641,0,0,1-2.646,2.63h-3.88a2.64,2.64,0,0,1-2.646-2.63v-11.16a2.633,2.633,0,0,1,2.646-2.63h1.459a24.593,24.593,0,0,1,3.192-10.81c3.37-5.43,9.446-8.07,18.577-8.07s15.207,2.64,18.577,8.07a24.577,24.577,0,0,1,3.192,10.8h1.46a2.641,2.641,0,0,1,2.645,2.64v11.16A2.64,2.64,0,0,1,982.227,5164.3Z" transform="translate(-927 -5129)"/>
</svg>
