<svg xmlns="http://www.w3.org/2000/svg" width="50" height="46" viewBox="0 0 50 46">
  <metadata><?xpacket begin="﻿" id="W5M0MpCehiHzreSzNTczkc9d"?>
<x:xmpmeta xmlns:x="adobe:ns:meta/" x:xmptk="Adobe XMP Core 5.6-c140 79.160451, 2017/05/06-01:08:21        ">
   <rdf:RDF xmlns:rdf="http://www.w3.org/1999/02/22-rdf-syntax-ns#">
      <rdf:Description rdf:about=""/>
   </rdf:RDF>
</x:xmpmeta>
                                                                                                    
                                                                                                    
                                                                                                    
                                                                                                    
                                                                                                    
                                                                                                    
                                                                                                    
                                                                                                    
                                                                                                    
                                                                                                    
                                                                                                    
                                                                                                    
                                                                                                    
                                                                                                    
                                                                                                    
                                                                                                    
                                                                                                    
                                                                                                    
                                                                                                    
                                                                                                    
                           
<?xpacket end="w"?></metadata>
<defs>
    <style>
      .cls-1 {
        fill: #ef233c;
        fill-rule: evenodd;
      }
    </style>
  </defs>
  <path id="icon" class="cls-1" d="M1383.78,1382.3l-2.56.31,2.44,2.46a5.459,5.459,0,0,1,1.52,4.59l-0.83,5.94a6.03,6.03,0,0,1-2.12,3.79v2.7a2.9,2.9,0,0,1-2.88,2.91h-4.79a2.9,2.9,0,0,1-2.88-2.91v-1.31h-21.36v1.31a2.9,2.9,0,0,1-2.88,2.91h-4.79a2.9,2.9,0,0,1-2.88-2.91v-2.7a6.03,6.03,0,0,1-2.12-3.79l-0.83-5.94a5.459,5.459,0,0,1,1.52-4.59l2.44-2.46-2.56-.31a2.551,2.551,0,0,1,.31-5.08h1.78a2.546,2.546,0,0,1,2.37,1.67l2.49-5.49a7.227,7.227,0,0,1,4.93-4.06c0.1-.02.21-0.05,0.33-0.07a10.574,10.574,0,0,1,21.14,0c0.12,0.02.23,0.05,0.33,0.07a7.227,7.227,0,0,1,4.93,4.06l2.49,5.49a2.546,2.546,0,0,1,2.37-1.67h1.78A2.551,2.551,0,0,1,1383.78,1382.3Zm-1.09,11.33,0.45-3.14h-8.87l0.97,3.14h7.45Zm-9.1,8.46a0.98,0.98,0,0,0,.97.98h4.79a0.98,0.98,0,0,0,.97-0.98h0v-1.62a5.928,5.928,0,0,1-1.88.31h-4.85v1.31Zm-31.91,0a0.98,0.98,0,0,0,.97.98h4.79a0.98,0.98,0,0,0,.97-0.98v-1.31h-4.85a5.882,5.882,0,0,1-1.88-.31v1.62Zm1.88-3.24h34.88a4.1,4.1,0,0,0,3.98-3.29h-42.84A4.1,4.1,0,0,0,1343.56,1398.85Zm29.68-5.22-0.98-3.14h-1.32l0.97,3.14h1.33Zm-3.33,0-0.97-3.14h-15.88l-0.97,3.14h17.82Zm-18.85-3.14h-1.32l-0.98,3.14h1.33Zm-11.75,3.14h7.45l0.97-3.14h-8.87Zm1.61-13.86a0.615,0.615,0,0,0-.61-0.62h-1.78a0.623,0.623,0,0,0-.62.62,0.634,0.634,0,0,0,.54.62l2.47,0.3v-0.92Zm9.61-8.55h0a5.31,5.31,0,0,0-2.22,1.12c0.59-.11,1.39-0.2,2.38-0.28A7.783,7.783,0,0,1,1350.53,1371.22Zm10.47-10.29a8.74,8.74,0,1,0,8.67,8.74A8.715,8.715,0,0,0,1361,1360.93Zm10.47,10.29h0a7.783,7.783,0,0,1-.16.84c0.99,0.08,1.78.17,2.37,0.28A5.215,5.215,0,0,0,1371.47,1371.22Zm3.95,3.7a7.233,7.233,0,0,0-1.9-.65,26.175,26.175,0,0,0-2.83-.32,10.542,10.542,0,0,1-19.38,0,25.313,25.313,0,0,0-2.82.32,7.179,7.179,0,0,0-1.91.65l-2.96,6.52h34.76Zm3.85,8.45h-36.54l-3.04,3.07a3.511,3.511,0,0,0-1,2.12h44.62a3.511,3.511,0,0,0-1-2.12Zm4.2-4.22h-1.78a0.615,0.615,0,0,0-.61.62h0v0.92l2.47-.3A0.623,0.623,0,0,0,1383.47,1379.15Zm-22.33-4a0.958,0.958,0,0,1-.82.66c-0.03,0-.06.01-0.09,0.01a0.952,0.952,0,0,1-.83-0.5l-2.87-5.14a0.963,0.963,0,0,1,.36-1.31,0.944,0.944,0,0,1,1.3.37l1.81,3.23,2.83-8.69a0.945,0.945,0,0,1,1.2-.61,0.966,0.966,0,0,1,.61,1.22Z" transform="translate(-1336 -1359)"/>
</svg>
