<svg xmlns="http://www.w3.org/2000/svg" width="16" height="11" viewBox="0 0 16 11">
  <metadata><?xpacket begin="﻿" id="W5M0MpCehiHzreSzNTczkc9d"?>
<x:xmpmeta xmlns:x="adobe:ns:meta/" x:xmptk="Adobe XMP Core 5.6-c140 79.160451, 2017/05/06-01:08:21        ">
   <rdf:RDF xmlns:rdf="http://www.w3.org/1999/02/22-rdf-syntax-ns#">
      <rdf:Description rdf:about=""/>
   </rdf:RDF>
</x:xmpmeta>
                                                                                                    
                                                                                                    
                                                                                                    
                                                                                                    
                                                                                                    
                                                                                                    
                                                                                                    
                                                                                                    
                                                                                                    
                                                                                                    
                                                                                                    
                                                                                                    
                                                                                                    
                                                                                                    
                                                                                                    
                                                                                                    
                                                                                                    
                                                                                                    
                                                                                                    
                                                                                                    
                           
<?xpacket end="w"?></metadata>
<defs>
    <style>
      .cls-1 {
        fill: #fff;
        fill-rule: evenodd;
      }
    </style>
  </defs>
  <path class="cls-1" d="M1333.91,2303.4a0.441,0.441,0,0,0-.32-0.15h-1.56a5.08,5.08,0,0,0-1.45-2.31c-1.97-1.26-7.2-1.26-9.17,0a5.08,5.08,0,0,0-1.45,2.31h-1.56a0.441,0.441,0,0,0-.32.15,0.359,0.359,0,0,0-.08.33l0.23,1.09a0.408,0.408,0,0,0,.4.31h0.46a2.659,2.659,0,0,0-.66,1.76,2.557,2.557,0,0,0,.85,1.97,0.038,0.038,0,0,1,.02.02v1.52a0.6,0.6,0,0,0,.62.59h1.43a0.6,0.6,0,0,0,.62-0.59v-0.61h8.05v0.61a0.6,0.6,0,0,0,.61.59h1.44a0.6,0.6,0,0,0,.62-0.59v-1.49a2.658,2.658,0,0,0,.87-1.97,2.613,2.613,0,0,0-.7-1.81h0.5a0.408,0.408,0,0,0,.4-0.31l0.23-1.09A0.424,0.424,0,0,0,1333.91,2303.4Zm-11.82-1.46c1.57-1.01,6.24-1.01,7.81,0a4.84,4.84,0,0,1,1.06,1.94h-9.93A4.794,4.794,0,0,1,1322.09,2301.94Zm-1.84,5.1a1.211,1.211,0,1,1,1.21,1.17A1.2,1.2,0,0,1,1320.25,2307.04Zm10.3,1.17a1.175,1.175,0,1,1,1.2-1.17A1.187,1.187,0,0,1,1330.55,2308.21Z" transform="translate(-1318 -2300)"/>
</svg>
