<svg xmlns="http://www.w3.org/2000/svg" width="50" height="46" viewBox="0 0 50 46">
  <metadata><?xpacket begin="﻿" id="W5M0MpCehiHzreSzNTczkc9d"?>
<x:xmpmeta xmlns:x="adobe:ns:meta/" x:xmptk="Adobe XMP Core 5.6-c140 79.160451, 2017/05/06-01:08:21        ">
   <rdf:RDF xmlns:rdf="http://www.w3.org/1999/02/22-rdf-syntax-ns#">
      <rdf:Description rdf:about=""/>
   </rdf:RDF>
</x:xmpmeta>
                                                                                                    
                                                                                                    
                                                                                                    
                                                                                                    
                                                                                                    
                                                                                                    
                                                                                                    
                                                                                                    
                                                                                                    
                                                                                                    
                                                                                                    
                                                                                                    
                                                                                                    
                                                                                                    
                                                                                                    
                                                                                                    
                                                                                                    
                                                                                                    
                                                                                                    
                                                                                                    
                           
<?xpacket end="w"?></metadata>
<defs>
    <style>
      .cls-1 {
        fill: #ef233c;
        fill-rule: evenodd;
      }
    </style>
  </defs>
  <path id="icon" class="cls-1" d="M584.775,1385.3l-2.553.31,2.442,2.46a5.484,5.484,0,0,1,1.52,4.59l-0.836,5.94a6.052,6.052,0,0,1-2.116,3.8v2.69a2.9,2.9,0,0,1-2.885,2.91h-4.784a2.9,2.9,0,0,1-2.885-2.91v-1.31H551.323v1.31a2.9,2.9,0,0,1-2.886,2.91h-4.785a2.9,2.9,0,0,1-2.885-2.91v-2.69a6.051,6.051,0,0,1-2.115-3.8l-0.835-5.94a5.477,5.477,0,0,1,1.518-4.59l2.442-2.46-2.553-.31a2.551,2.551,0,0,1,.3-5.08h1.779a2.538,2.538,0,0,1,2.372,1.67l2.488-5.49a7.246,7.246,0,0,1,4.934-4.06c0.1-.02.21-0.05,0.327-0.07l0-.09a10.65,10.65,0,0,1,3.443-7.4,10.524,10.524,0,0,1,14.948.7,10.648,10.648,0,0,1,2.753,6.79c0.116,0.02.225,0.05,0.325,0.07a7.248,7.248,0,0,1,4.935,4.06l2.488,5.49a2.538,2.538,0,0,1,2.372-1.67h1.778A2.55,2.55,0,0,1,584.775,1385.3Zm-1.081,11.33,0.442-3.14h-8.868l0.972,3.14h7.454Zm-9.1,8.46a0.978,0.978,0,0,0,.973.98h4.784a0.978,0.978,0,0,0,.973-0.98v-1.62a5.97,5.97,0,0,1-1.883.31H574.59v1.31Zm-31.911,0a0.978,0.978,0,0,0,.973.98h4.786a0.978,0.978,0,0,0,.973-0.98v-1.31h-4.848a5.981,5.981,0,0,1-1.884-.31v1.62Zm-0.414-3.96a4.018,4.018,0,0,0,2.3.72h34.874a4.015,4.015,0,0,0,2.3-.72,4.093,4.093,0,0,0,1.682-2.57H540.584A4.092,4.092,0,0,0,542.265,1401.13Zm31.971-4.5-0.972-3.14H571.94l0.972,3.14h1.324Zm-3.327,0-0.972-3.14H554.063l-0.972,3.14h17.818Zm-18.85-3.14h-1.324l-0.971,3.14h1.323Zm-11.753,3.14h7.454l0.972-3.14h-8.867Zm1.615-13.86a0.619,0.619,0,0,0-.615-0.62h-1.779a0.619,0.619,0,0,0-.615.62,0.628,0.628,0,0,0,.542.62l2.467,0.3v-0.92Zm9.607-8.55h0a5.239,5.239,0,0,0-2.212,1.12c0.587-.11,1.38-0.2,2.368-0.28C551.62,1374.79,551.569,1374.5,551.528,1374.22Zm-2.042,3.05a7.224,7.224,0,0,0-1.906.65l-2.955,6.52h24.344l-2.081-2.3a10.515,10.515,0,0,1-4.877,1.2c-0.167,0-.334,0-0.5-0.01a10.451,10.451,0,0,1-7.33-3.47,10.814,10.814,0,0,1-1.877-2.91A25.578,25.578,0,0,0,549.486,1377.27Zm26.373,11.93a0.8,0.8,0,0,0,1.125.06,0.815,0.815,0,0,0,.053-1.14L569.7,1380c-0.182.19-.372,0.38-0.569,0.56s-0.4.35-.611,0.52Zm-7.451-22.42a8.611,8.611,0,0,0-6.006-2.84c-0.137-.01-0.275-0.01-0.411-0.01a8.563,8.563,0,0,0-5.83,2.28,8.794,8.794,0,0,0-.569,12.35,8.625,8.625,0,0,0,12.247.57A8.8,8.8,0,0,0,568.408,1366.78Zm4.064,7.44h0c-0.041.28-.093,0.57-0.156,0.84,0.987,0.08,1.78.17,2.37,0.28A5.239,5.239,0,0,0,572.472,1374.22Zm3.949,3.7a7.224,7.224,0,0,0-1.906-.65,25.762,25.762,0,0,0-2.816-.32,10.722,10.722,0,0,1-.8,1.51l5.4,5.98h3.077Zm3.849,8.45h-2.228l0.408,0.45a2.751,2.751,0,0,1-.178,3.86,2.665,2.665,0,0,1-1.823.71,2.7,2.7,0,0,1-2-.89l-3.733-4.13H543.73l-3.042,3.07a3.5,3.5,0,0,0-.994,2.12h44.613a3.51,3.51,0,0,0-1-2.12Zm4.2-4.22h-1.778a0.62,0.62,0,0,0-.616.62h0v0.92l2.468-.3a0.628,0.628,0,0,0,.542-0.62A0.62,0.62,0,0,0,584.472,1382.15Zm-22.464-1.61c-0.123,0-.246,0-0.37-0.01a7.746,7.746,0,0,1-5.4-2.56,7.919,7.919,0,0,1,.512-11.11,7.747,7.747,0,0,1,11.02.51,7.931,7.931,0,0,1-.512,11.12A7.711,7.711,0,0,1,562.008,1380.54Zm4.344-11.87a5.822,5.822,0,0,0-4.079-1.93c-0.093,0-.187-0.01-0.28-0.01a5.841,5.841,0,0,0-3.959,1.55,5.982,5.982,0,0,0-.386,8.39,5.859,5.859,0,0,0,8.318.39A5.981,5.981,0,0,0,566.352,1368.67Zm-1.6,8.01a0.942,0.942,0,0,1-.707-0.31,0.968,0.968,0,0,1,.063-1.36,3.185,3.185,0,0,0,.206-4.47,0.967,0.967,0,0,1,.063-1.36,0.952,0.952,0,0,1,1.35.06,5.119,5.119,0,0,1-.331,7.19A0.939,0.939,0,0,1,564.754,1376.68Z" transform="translate(-537 -1362)"/>
</svg>
