<svg xmlns="http://www.w3.org/2000/svg" width="50.031" height="50" viewBox="0 0 50.031 50">
  <metadata><?xpacket begin="﻿" id="W5M0MpCehiHzreSzNTczkc9d"?>
<x:xmpmeta xmlns:x="adobe:ns:meta/" x:xmptk="Adobe XMP Core 5.6-c140 79.160451, 2017/05/06-01:08:21        ">
   <rdf:RDF xmlns:rdf="http://www.w3.org/1999/02/22-rdf-syntax-ns#">
      <rdf:Description rdf:about=""/>
   </rdf:RDF>
</x:xmpmeta>
                                                                                                    
                                                                                                    
                                                                                                    
                                                                                                    
                                                                                                    
                                                                                                    
                                                                                                    
                                                                                                    
                                                                                                    
                                                                                                    
                                                                                                    
                                                                                                    
                                                                                                    
                                                                                                    
                                                                                                    
                                                                                                    
                                                                                                    
                                                                                                    
                                                                                                    
                                                                                                    
                           
<?xpacket end="w"?></metadata>
<defs>
    <style>
      .cls-1 {
        fill: #8d99ae;
        fill-rule: evenodd;
      }
    </style>
  </defs>
  <path id="icon" class="cls-1" d="M869.71,3629.51l-11.925-11.86-0.178-.89a2.824,2.824,0,0,0-4.759-1.44l-1.1,1.09-3.333-3.31,10.343-10.29a8.006,8.006,0,0,1,3.222-1.94,7.273,7.273,0,0,0,2.873-1.75,7.121,7.121,0,0,0-.168-10.27,1.057,1.057,0,0,0-.962-0.25,1.025,1.025,0,0,0-.717.69l-1.164,3.71a1.678,1.678,0,0,1-.833.99,1.7,1.7,0,0,1-2.3-.71,1.676,1.676,0,0,1-.118-1.29l1.151-3.67a1.011,1.011,0,0,0-.205-0.97,1.036,1.036,0,0,0-.938-0.34,7.166,7.166,0,0,0-5.977,7.85,7.676,7.676,0,0,1-2.277,6.31l-6.961,6.93-14.36-14.29,0.216-2.99a1,1,0,0,0-.514-0.95l-4.341-2.47a1.031,1.031,0,0,0-1.232.16l-1.861,1.85a1.023,1.023,0,0,0-.165,1.23l2.481,4.32a1.019,1.019,0,0,0,.889.51h0.073l3.006-.22,14.36,14.29L831.6,3619.82a8.14,8.14,0,0,1-3.222,1.95,7.132,7.132,0,0,0-2.705,12.02,1.029,1.029,0,0,0,1.679-.44l1.163-3.71a1.7,1.7,0,0,1,3.131-.29,1.671,1.671,0,0,1,.117,1.29l-1.15,3.67a1.019,1.019,0,0,0,.978,1.32,0.914,0.914,0,0,0,.165-0.01,7.085,7.085,0,0,0,3.571-1.67,7.157,7.157,0,0,0,2.406-6.18,7.676,7.676,0,0,1,2.277-6.31l6.96-6.92,3.334,3.31-1.1,1.09a2.8,2.8,0,0,0-.7,2.8,2.827,2.827,0,0,0,2.146,1.94l0.894,0.17,11.925,11.87a4.444,4.444,0,0,0,6.241,0A4.38,4.38,0,0,0,869.71,3629.51Zm-42.693-36.26-1.943.14-1.773-3.09,0.754-.75,3.1,1.77Zm11.544,26.77A9.705,9.705,0,0,0,835.7,3628a5.127,5.127,0,0,1-1.722,4.42,4.67,4.67,0,0,1-.8.57l0.545-1.74a3.682,3.682,0,0,0-.259-2.84,3.742,3.742,0,0,0-2.2-1.83,3.923,3.923,0,0,0-1.121-.17,3.762,3.762,0,0,0-3.575,2.62l-0.572,1.82a5.1,5.1,0,0,1,.966-5.9,5.086,5.086,0,0,1,2.052-1.25,10.141,10.141,0,0,0,4.042-2.43l18.753-18.66a9.683,9.683,0,0,0,2.864-7.98,5.1,5.1,0,0,1,1.723-4.41,5.253,5.253,0,0,1,.8-0.58l-0.546,1.74a3.748,3.748,0,0,0,7.159,2.22l0.572-1.82a5.114,5.114,0,0,1-3.018,7.15,10.049,10.049,0,0,0-4.042,2.44Zm12.49,1.66a0.769,0.769,0,0,1-.394-1.3l3.64-3.62a0.727,0.727,0,0,1,.534-0.22,1.147,1.147,0,0,1,.235.03,0.756,0.756,0,0,1,.532.59l0.132,0.65-4.017,4-0.662-.13h0Zm17.211,12.59a2.371,2.371,0,0,1-3.344,0l-11.42-11.35,3.344-3.33,11.42,11.36A2.337,2.337,0,0,1,868.262,3634.27Z" transform="translate(-821 -3587)"/>
</svg>
