<svg xmlns="http://www.w3.org/2000/svg" width="98.594" height="28.94" viewBox="0 0 98.594 28.94"><defs><style>.cls-1{fill:#8d99ae;fill-rule:evenodd}</style></defs><path id="Convertible" class="cls-1" d="M236.293 5563.63a7.234 7.234 0 1 0-14.466 0 7.38 7.38 0 0 0 .064.93 7.215 7.215 0 0 0 14.37-.3c.017-.21.032-.41.032-.63zm-10.856-2.77l1.476 1.5a2.528 2.528 0 0 0-.261.65h-2.08a4.662 4.662 0 0 1 .865-2.15zm-.871 3.42h2.094a2.36 2.36 0 0 0 .262.64l-1.477 1.5a4.579 4.579 0 0 1-.879-2.14zm3.869 3.92a4.462 4.462 0 0 1-2.1-.88l1.47-1.5a2.32 2.32 0 0 0 .629.26v2.12zm0-7.01a2.436 2.436 0 0 0-.641.27l-1.472-1.49a4.413 4.413 0 0 1 2.113-.89v2.11zm1.25-2.12a4.625 4.625 0 0 1 2.114.89l-1.472 1.5a2.414 2.414 0 0 0-.642-.27v-2.12zm0 9.13v-2.12a2.653 2.653 0 0 0 .629-.26l1.472 1.5a4.473 4.473 0 0 1-2.101.88zm3-1.77l-1.483-1.51a2.592 2.592 0 0 0 .27-.64h2.078a4.619 4.619 0 0 1-.868 2.15zm-1.213-3.42a2.68 2.68 0 0 0-.261-.65l1.475-1.5a4.632 4.632 0 0 1 .866 2.15h-2.08zm56.436-6.73a7.291 7.291 0 0 0-7.232 7.35 7.382 7.382 0 0 0 .063.93 7.215 7.215 0 0 0 14.37-.3c.016-.2.031-.41.031-.63a7.289 7.289 0 0 0-7.24-7.35zm-3.622 4.58l1.476 1.5a2.567 2.567 0 0 0-.262.65h-2.079a4.641 4.641 0 0 1 .862-2.15zm-.872 3.42h2.094a2.392 2.392 0 0 0 .262.64l-1.478 1.5a4.588 4.588 0 0 1-.881-2.14zm3.869 3.92a4.466 4.466 0 0 1-2.1-.88l1.471-1.5a2.321 2.321 0 0 0 .627.26v2.12zm0-7.01a2.429 2.429 0 0 0-.64.27l-1.472-1.49a4.409 4.409 0 0 1 2.112-.89v2.11zm1.25-2.12a4.629 4.629 0 0 1 2.115.89l-1.472 1.5a2.434 2.434 0 0 0-.643-.27v-2.12zm0 9.13v-2.12a2.7 2.7 0 0 0 .63-.26l1.472 1.5a4.476 4.476 0 0 1-2.105.88zm3-1.77l-1.484-1.51a2.554 2.554 0 0 0 .27-.64h2.078a4.629 4.629 0 0 1-.869 2.15zm-1.214-3.42a2.68 2.68 0 0 0-.261-.65l1.475-1.5a4.641 4.641 0 0 1 .865 2.15h-2.079zm17.938-8.1a31.973 31.973 0 0 0-18.113-7.61l-5.694-1.82a1.534 1.534 0 0 0-1.926 1.02l-.453 1.44-10.474.8-.215-2.13a1.258 1.258 0 0 0-1.281-1.14l-.694.02a1.263 1.263 0 0 0-1.22 1.27v2.4l-15.725.73a1.976 1.976 0 0 0-.41-1.92l6.516-3.13a1.187 1.187 0 0 0 .045-2.11l-.763-.41a2.031 2.031 0 0 0-1.67-.1c-2.4.94-9.469 3.76-16.688 7.28-10.665.76-22.516 2.86-25.367 4.73s-3.126 4.18-2.915 6.57a7.6 7.6 0 0 0 6.277 6.86l4.671.77h.142a8.374 8.374 0 0 1-1.424-3.74 8.707 8.707 0 0 1-.071-1.06 8.254 8.254 0 1 1 16.507 0c0 .24-.016.48-.033.71a8.386 8.386 0 0 1-1.385 3.95l44.259-.45.607-.03a8.425 8.425 0 0 1-1.039-3.12 8.707 8.707 0 0 1-.071-1.06 8.254 8.254 0 1 1 16.507 0c0 .24-.015.48-.033.71a8.391 8.391 0 0 1-.783 2.89l10.181-.41.681-.76a14.859 14.859 0 0 0 3.465-6.86 4.476 4.476 0 0 0-1.416-4.29z" transform="translate(-211.156 -5542.06)"/></svg>