<svg xmlns="http://www.w3.org/2000/svg" width="99.85" height="39.06" viewBox="0 0 99.85 39.06"><defs><style>.cls-1{fill:#8d99ae;fill-rule:evenodd}</style></defs><path id="Forma_1" data-name="Forma 1" class="cls-1" d="M1158.28 5557.83a7.577 7.577 0 0 0-7.59 7.58 7.341 7.341 0 0 0 .06.95 7.583 7.583 0 0 0 15.08-.3c.02-.22.04-.43.04-.65a7.584 7.584 0 0 0-7.59-7.58zm-3.81 4.72l1.55 1.55a2.614 2.614 0 0 0-.27.67h-2.18a4.8 4.8 0 0 1 .9-2.22zm-.91 3.53h2.2a2.546 2.546 0 0 0 .27.66l-1.55 1.55a4.684 4.684 0 0 1-.92-2.21zm4.06 4.04a4.635 4.635 0 0 1-2.2-.91l1.54-1.54a2.523 2.523 0 0 0 .66.26v2.19zm0-7.23a2.322 2.322 0 0 0-.67.28l-1.55-1.55a4.707 4.707 0 0 1 2.22-.91v2.18zm1.31-2.18a4.666 4.666 0 0 1 2.22.91l-1.54 1.55a2.382 2.382 0 0 0-.68-.28v-2.18zm0 9.41v-2.19a2.392 2.392 0 0 0 .66-.26l1.55 1.54a4.671 4.671 0 0 1-2.21.91zm3.15-1.83l-1.56-1.55a3.005 3.005 0 0 0 .29-.66h2.18a4.774 4.774 0 0 1-.91 2.21zm-1.27-3.52a2.639 2.639 0 0 0-.28-.67l1.55-1.55a4.707 4.707 0 0 1 .91 2.22h-2.18zm62.59-6.94a7.584 7.584 0 0 0-7.59 7.58 7.319 7.319 0 0 0 .07.95 7.583 7.583 0 0 0 15.08-.3c.02-.22.03-.43.03-.65a7.584 7.584 0 0 0-7.59-7.58zm-3.8 4.72l1.55 1.55a2.639 2.639 0 0 0-.28.67h-2.18a4.707 4.707 0 0 1 .91-2.22zm-.92 3.53h2.2a2.546 2.546 0 0 0 .27.66l-1.55 1.55a4.788 4.788 0 0 1-.92-2.21zm4.06 4.04a4.635 4.635 0 0 1-2.2-.91l1.54-1.54a2.668 2.668 0 0 0 .66.26v2.19zm0-7.23a2.322 2.322 0 0 0-.67.28l-1.55-1.55a4.707 4.707 0 0 1 2.22-.91v2.18zm1.32-2.18a4.707 4.707 0 0 1 2.22.91l-1.55 1.55a2.322 2.322 0 0 0-.67-.28v-2.18zm0 9.41v-2.19a2.668 2.668 0 0 0 .66-.26l1.54 1.54a4.635 4.635 0 0 1-2.2.91zm3.14-1.83l-1.55-1.55a2.572 2.572 0 0 0 .28-.66h2.18a4.774 4.774 0 0 1-.91 2.21zm-1.27-3.52a2.614 2.614 0 0 0-.27-.67l1.54-1.55a4.707 4.707 0 0 1 .91 2.22h-2.18zm12.66-13.09a10.345 10.345 0 0 0-1.35-4.77l-5.45-9.61a5.3 5.3 0 0 0-4.34-2.68c-9.13-.45-37.15-1.62-45.97.75-5.96 1.6-21.01 11.49-21.01 11.49s-16.57 2.57-19.73 10.11a3.863 3.863 0 0 0-1.61 2.84 12.89 12.89 0 0 0 .53 3.98 3.8 3.8 0 0 0 3.08 2.79l7.19 1.12a7.984 7.984 0 0 1-.25-1.2 7.766 7.766 0 0 1-.08-1.09 8.675 8.675 0 0 1 17.35 0c0 .25-.02.49-.04.74a8.16 8.16 0 0 1-.57 2.41l.85.05 47.76-1.29c-.06-.27-.11-.54-.15-.82a9.659 9.659 0 0 1-.07-1.09 8.67 8.67 0 0 1 17.34 0c0 .25-.01.49-.03.74-.02.16-.05.31-.07.47l4.13-.84a3.553 3.553 0 0 0 2.84-3.6zm-27.49-15.28l1.1 10.94-16.84.69v-11.69c4.92-.11 10.54-.06 15.74.06zm-42.49 12.41l-1.67.1a1.028 1.028 0 0 1-1.02-.68 1.039 1.039 0 0 1 .36-1.17c.98-.71 2.18-1.56 3.51-2.47v2.8a5 5 0 0 0-1.18 1.42zm4.12-2.56c-.1.01-.19.03-.29.04v-3.43a50.975 50.975 0 0 1 10.55-5.36 36.606 36.606 0 0 1 7.67-.98v11.7l-14.47.59a3.261 3.261 0 0 0-3.46-2.56zm58.5-1.06a2.93 2.93 0 0 1-2.43 1.48l-11.9.48-1.07-10.62c4.92.15 9.03.33 11.11.44a2.753 2.753 0 0 1 2.28 1.46l2.07 3.92a2.928 2.928 0 0 1-.06 2.84z" transform="translate(-1139.09 -5533.94)"/></svg>