<svg xmlns="http://www.w3.org/2000/svg" width="99.75" height="33" viewBox="0 0 99.75 33"><defs><style>.cls-1{fill:#8d99ae;fill-rule:evenodd}</style></defs><path id="Forma_1" data-name="Forma 1" class="cls-1" d="M1390.13 5555.26a7.87 7.87 0 1 0 7.91 8.54c.02-.22.03-.44.03-.67a7.9 7.9 0 0 0-7.94-7.87zm-3.97 4.91l1.62 1.6a2.6 2.6 0 0 0-.29.69h-2.28a4.637 4.637 0 0 1 .95-2.29zm-.96 3.66h2.3a2.707 2.707 0 0 0 .28.68l-1.62 1.61a4.927 4.927 0 0 1-.96-2.29zm4.24 4.19a4.937 4.937 0 0 1-2.3-.94l1.62-1.6a2.682 2.682 0 0 0 .68.27v2.27zm0-7.51a3.564 3.564 0 0 0-.7.29l-1.61-1.6a4.938 4.938 0 0 1 2.32-.95v2.26h-.01zm1.38-2.26a4.938 4.938 0 0 1 2.32.95l-1.62 1.6a3.122 3.122 0 0 0-.7-.29v-2.26zm0 9.77v-2.27a2.442 2.442 0 0 0 .69-.28l1.61 1.61a5 5 0 0 1-2.3.94zm3.29-1.9l-1.63-1.61a2.761 2.761 0 0 0 .3-.68h2.28a4.871 4.871 0 0 1-.95 2.29zm-1.33-3.66a2.6 2.6 0 0 0-.29-.69l1.62-1.6a4.829 4.829 0 0 1 .95 2.29h-2.28zm54.58-7.2a7.9 7.9 0 0 0-7.94 7.87 6.411 6.411 0 0 0 .07.99 7.938 7.938 0 0 0 15.77-.32c.02-.22.04-.44.04-.67a7.906 7.906 0 0 0-7.94-7.87zm-3.98 4.91l1.62 1.6a2.6 2.6 0 0 0-.29.69h-2.28a4.829 4.829 0 0 1 .95-2.29zm-.96 3.66h2.3a2.406 2.406 0 0 0 .29.68l-1.63 1.61a4.927 4.927 0 0 1-.96-2.29zm4.25 4.19a4.973 4.973 0 0 1-2.31-.94l1.62-1.6a2.61 2.61 0 0 0 .69.27v2.27zm0-7.51a3.122 3.122 0 0 0-.7.29l-1.62-1.6a4.938 4.938 0 0 1 2.32-.95v2.26zm1.37-2.26a4.938 4.938 0 0 1 2.32.95l-1.61 1.6a3.413 3.413 0 0 0-.71-.29v-2.26zm0 9.77v-2.27a2.328 2.328 0 0 0 .69-.28l1.62 1.61a5.036 5.036 0 0 1-2.31.94zm3.29-1.9l-1.63-1.61a2.761 2.761 0 0 0 .3-.68h2.28a4.871 4.871 0 0 1-.95 2.29zm-1.33-3.66a2.6 2.6 0 0 0-.29-.69l1.62-1.6a4.731 4.731 0 0 1 .95 2.29H1450zm20.7-4.97h-1.56l-.41-9.33a1.057 1.057 0 0 0-1.08-1.02l-21.64.19v-7.75a1.306 1.306 0 0 0-1.31-1.3h-1.04a1.306 1.306 0 0 0-1.31 1.3v7.79l-2.87.02-.58-6.86a2.787 2.787 0 0 0-2.78-2.54h-26.28a3.6 3.6 0 0 0-2.46.98l-8.82 8.4-16.89 1.77a8.738 8.738 0 0 0-5.94 3.24l-1.74 2.19a3.628 3.628 0 0 0-1.65 3.87l.53 2.35a2.653 2.653 0 0 0 2.05 2.02l5.76 1.25c-.03-.32-.06-.64-.06-.93a9.515 9.515 0 0 1 19.03 0c0 .27-.02.54-.04.8l-.03.2h38.33a8.862 8.862 0 0 1-.07-1 9.515 9.515 0 0 1 19.03 0c0 .27-.02.54-.04.8 0 .07-.02.14-.02.2h4.82l4.38-2.39h4.69a1.287 1.287 0 0 0 1.3-1.28v-1.69a1.287 1.287 0 0 0-1.3-1.28zm-65.22-9.61a4.287 4.287 0 0 0 0-2.88l3.48-4.28a1.06 1.06 0 0 1 .81-.38h10.43v7.54h-14.72zm18.57 0v-7.54h9.46a1.052 1.052 0 0 1 1.05.99l.27 6.55h-10.78z" transform="translate(-1372.25 -5538)"/></svg>