<svg xmlns="http://www.w3.org/2000/svg" width="98.781" height="34.47" viewBox="0 0 98.781 34.47"><defs><style>.cls-1{fill:#8d99ae;fill-rule:evenodd}</style></defs><path id="Forma_1" data-name="Forma 1" class="cls-1" d="M460.337 5558.93a7.045 7.045 0 0 0-7.068 7.03 6.755 6.755 0 0 0 .063.89 7.066 7.066 0 0 0 14.044-.29c.016-.19.03-.39.03-.6a7.044 7.044 0 0 0-7.069-7.03zm-3.541 4.38l1.443 1.44a2.384 2.384 0 0 0-.256.62h-2.032a4.387 4.387 0 0 1 .849-2.06zm-.851 3.28h2.046a2.32 2.32 0 0 0 .256.6l-1.445 1.44a4.33 4.33 0 0 1-.857-2.04zm3.781 3.75a4.483 4.483 0 0 1-2.051-.85l1.437-1.43a2.187 2.187 0 0 0 .613.24v2.04zm0-6.72a2.658 2.658 0 0 0-.625.26l-1.439-1.43a4.312 4.312 0 0 1 2.064-.85v2.02zm1.221-2.02a4.311 4.311 0 0 1 2.067.85l-1.439 1.43a2.681 2.681 0 0 0-.628-.26v-2.02zm0 8.73v-2.03a2.175 2.175 0 0 0 .615-.24l1.438 1.43a4.355 4.355 0 0 1-2.053.84zm2.931-1.69l-1.45-1.45a2.338 2.338 0 0 0 .263-.6h2.031a4.4 4.4 0 0 1-.844 2.05zm-1.186-3.27a2.382 2.382 0 0 0-.255-.62l1.442-1.44a4.378 4.378 0 0 1 .846 2.06h-2.033zm58.706-6.89a7.051 7.051 0 0 0-7.066 7.04 6.557 6.557 0 0 0 .063.88 7.066 7.066 0 0 0 14.044-.28c.017-.2.03-.4.03-.6a7.055 7.055 0 0 0-7.069-7.04zm-3.541 4.38l1.443 1.44a2.348 2.348 0 0 0-.255.62h-2.033a4.387 4.387 0 0 1 .845-2.06zm-.851 3.28h2.047a2.543 2.543 0 0 0 .255.61l-1.444 1.44a4.4 4.4 0 0 1-.858-2.05zm3.782 3.75a4.482 4.482 0 0 1-2.052-.85l1.437-1.43a2.57 2.57 0 0 0 .614.25v2.03zm0-6.72a2.666 2.666 0 0 0-.626.26l-1.439-1.43a4.412 4.412 0 0 1 2.065-.85v2.02zm1.224-2.02a4.312 4.312 0 0 1 2.064.85l-1.439 1.43a2.676 2.676 0 0 0-.625-.26v-2.02zm0 8.74v-2.03a2.538 2.538 0 0 0 .612-.25l1.438 1.43a4.484 4.484 0 0 1-2.05.85zm2.928-1.7l-1.451-1.44a2.616 2.616 0 0 0 .265-.61h2.03a4.423 4.423 0 0 1-.844 2.05zm-1.185-3.27a2.422 2.422 0 0 0-.257-.62l1.443-1.44a4.4 4.4 0 0 1 .846 2.06h-2.032zm16.874-5.45l-.475-.21v-5.32a6.731 6.731 0 0 0-1.171-3.79l-4.124-6.04a9.094 9.094 0 0 0-6.284-3.87c-8.457-1.15-28.3-3.25-41.452.07-9.721 2.45-21.4 9.84-21.4 9.84s-15 2.43-18.309 4.24c-2.537 1.37-4.035 3.14-4.291 5.68a15.829 15.829 0 0 0 .36 4.17 3.921 3.921 0 0 0 3.114 3.1l5.519 1.06a8.66 8.66 0 0 1-.292-1.36 8.4 8.4 0 0 1-.074-1.08 8.591 8.591 0 0 1 17.181 0c0 .25-.016.49-.034.72a8.476 8.476 0 0 1-.357 1.79h44.81a8.351 8.351 0 0 1-.469-1.88 8.465 8.465 0 0 1-.074-1.08 8.591 8.591 0 0 1 17.181 0c0 .25-.016.49-.034.73a8.4 8.4 0 0 1-.509 2.23h.055l10.4-3.17a2.518 2.518 0 0 0 1.76-2.06l.211-1.55a2.111 2.111 0 0 0-1.242-2.22zm-29.672-18.72v8.53l-12.39.62v-9.29c.067 0 .131-.01.2-.01 4.251-.04 8.397.03 12.19.15zm-34.867 6.84v-.97a47.743 47.743 0 0 1 18.844-5.81l-1.082 9.32-17.762.89s.845-.39.845-2.27a1.445 1.445 0 0 0-.845-1.16zm37.231 1.58v-4.46l2.314 4.34zm17.485-1.39a5.733 5.733 0 0 1-2.33.63l-10.185.51-4.291-8.05c7.856.33 13.679.88 14.829 1.21 1.819.51 3.467 2.99 3.4 4.22a2.3 2.3 0 0 1-1.423 1.48z" transform="translate(-443.094 -5538.53)"/></svg>