<svg xmlns="http://www.w3.org/2000/svg" width="99.594" height="29.78" viewBox="0 0 99.594 29.78"><defs><style>.cls-1{fill:#fff;fill-rule:evenodd}</style></defs><path id="Forma_1" data-name="Forma 1" class="cls-1" d="M695.424 5558.11a7.457 7.457 0 0 0-7.476 7.44 7.3 7.3 0 0 0 .067.94 7.472 7.472 0 0 0 14.853-.3c.018-.21.032-.42.032-.64a7.456 7.456 0 0 0-7.476-7.44zm-3.745 4.64l1.525 1.52a2.517 2.517 0 0 0-.271.65h-2.15a4.639 4.639 0 0 1 .896-2.17zm-.9 3.46h2.165a2.586 2.586 0 0 0 .27.65l-1.528 1.52a4.644 4.644 0 0 1-.909-2.17zm4 3.97a4.62 4.62 0 0 1-2.168-.9l1.52-1.51a2.443 2.443 0 0 0 .648.26v2.15zm0-7.1a2.567 2.567 0 0 0-.661.27l-1.523-1.52a4.775 4.775 0 0 1 2.184-.9v2.15zm1.294-2.15a4.779 4.779 0 0 1 2.185.9l-1.524 1.52a2.539 2.539 0 0 0-.661-.27v-2.15zm0 9.25v-2.15a2.416 2.416 0 0 0 .648-.26l1.522 1.51a4.623 4.623 0 0 1-2.172.9zm3.1-1.8l-1.533-1.52a2.609 2.609 0 0 0 .279-.65h2.148a4.627 4.627 0 0 1-.899 2.17zm-1.253-3.46a2.485 2.485 0 0 0-.272-.65l1.525-1.52a4.609 4.609 0 0 1 .9 2.17h-2.149zm59.245-6.75a7.415 7.415 0 1 0 7.411 8.05c.019-.21.033-.42.033-.63a7.43 7.43 0 0 0-7.449-7.42zm-3.728 4.62l1.519 1.52a2.48 2.48 0 0 0-.27.65h-2.14a4.623 4.623 0 0 1 .886-2.17zm-.9 3.45h2.154a2.375 2.375 0 0 0 .27.64l-1.522 1.52a4.686 4.686 0 0 1-.905-2.16zm3.983 3.95a4.677 4.677 0 0 1-2.159-.89l1.513-1.51a2.43 2.43 0 0 0 .646.26v2.14zm0-7.07a2.5 2.5 0 0 0-.658.27l-1.517-1.51a4.628 4.628 0 0 1 2.175-.89v2.13zm1.289-2.13a4.615 4.615 0 0 1 2.174.89l-1.516 1.51a2.533 2.533 0 0 0-.658-.27v-2.13zm0 9.2v-2.14a2.41 2.41 0 0 0 .645-.26l1.514 1.51a4.677 4.677 0 0 1-2.162.89zm3.083-1.79l-1.527-1.52a2.536 2.536 0 0 0 .277-.64h2.139a4.584 4.584 0 0 1-.892 2.16zm-1.248-3.44a2.738 2.738 0 0 0-.27-.66l1.519-1.51a4.612 4.612 0 0 1 .891 2.17h-2.14zm18.3-4.55a5.143 5.143 0 0 0-.883-2.75l-.4-.6-1.76-4.62a2.415 2.415 0 0 0-2.075-1.56c-1.73-.15-4.672-.37-7.48-.47-9.814-5.2-27.961-10.41-43.35-4.73-3.158 1.17-12.18 5.74-12.18 5.74s-14.65-.37-25.1 3.34a9.474 9.474 0 0 0-6.278 9.86 22.5 22.5 0 0 0 .342 2.26 2.309 2.309 0 0 0 2.018 1.84l6.5.71a8.879 8.879 0 0 1-.821-2.75 8.708 8.708 0 0 1-.078-1.13 9.028 9.028 0 0 1 18.055 0c0 .26-.017.52-.038.77a8.838 8.838 0 0 1-.871 3.13h45.138l.367-.02a8.813 8.813 0 0 1-.806-2.72 8.669 8.669 0 0 1-.077-1.12 9 9 0 0 1 17.991 0c0 .26-.017.51-.038.76a8.861 8.861 0 0 1-.454 2.11l1.017-.06 6.993-.93a3.944 3.944 0 0 0 2.9-1.93l.7-1.19a5.188 5.188 0 0 0 .7-2.73zm-24.772-8.91H718.94a2.075 2.075 0 0 0-.692-1.78s8.751-5.63 22.265-4.22c3.719.38 8.263.65 14.45 3.85z" transform="translate(-678.375 -5543.22)"/></svg>