<svg xmlns="http://www.w3.org/2000/svg" width="98.88" height="35.5" viewBox="0 0 98.88 35.5"><defs><style>.cls-1{fill:#8d99ae;fill-rule:evenodd}</style></defs><path id="Forma_1" data-name="Forma 1" class="cls-1" d="M1619.38 5556.93a7.53 7.53 0 1 0 7.43 8.17c.02-.21.03-.42.03-.64a7.494 7.494 0 0 0-7.46-7.53zm-3.74 4.69l1.52 1.54a2.77 2.77 0 0 0-.27.66h-2.14a4.711 4.711 0 0 1 .89-2.2zm-.9 3.5h2.16a2.546 2.546 0 0 0 .27.66l-1.52 1.53a4.761 4.761 0 0 1-.91-2.19zm3.99 4.01a4.62 4.62 0 0 1-2.16-.9l1.52-1.53a2.532 2.532 0 0 0 .64.26v2.17zm0-7.17a2.48 2.48 0 0 0-.65.27l-1.52-1.53a4.528 4.528 0 0 1 2.17-.91v2.17zm1.3-2.17a4.605 4.605 0 0 1 2.18.91l-1.52 1.53a2.7 2.7 0 0 0-.66-.27v-2.17zm0 9.34v-2.17a2.391 2.391 0 0 0 .64-.26l1.52 1.53a4.62 4.62 0 0 1-2.16.9zm3.09-1.81l-1.53-1.54a2.546 2.546 0 0 0 .27-.66h2.15a4.818 4.818 0 0 1-.89 2.2zm-1.25-3.5a2.77 2.77 0 0 0-.27-.66l1.52-1.54a4.711 4.711 0 0 1 .89 2.2h-2.14zm59.47-6.89a7.53 7.53 0 1 0 7.43 8.17c.01-.21.03-.42.03-.64a7.494 7.494 0 0 0-7.46-7.53zm-3.74 4.69l1.52 1.54a2.411 2.411 0 0 0-.27.66h-2.14a4.711 4.711 0 0 1 .89-2.2zm-.9 3.5h2.16a2.546 2.546 0 0 0 .27.66l-1.53 1.53a4.645 4.645 0 0 1-.9-2.19zm3.99 4.01a4.578 4.578 0 0 1-2.16-.9l1.51-1.53a2.456 2.456 0 0 0 .65.26v2.17zm0-7.17a2.411 2.411 0 0 0-.66.27l-1.52-1.53a4.564 4.564 0 0 1 2.18-.91v2.17zm1.29-2.17a4.523 4.523 0 0 1 2.18.91l-1.52 1.53a2.79 2.79 0 0 0-.66-.28v-2.16zm0 9.34v-2.17a2.456 2.456 0 0 0 .65-.26l1.52 1.53a4.657 4.657 0 0 1-2.17.9zm3.09-1.81l-1.53-1.54a2.572 2.572 0 0 0 .28-.66h2.14a4.609 4.609 0 0 1-.89 2.2zm-1.25-3.5a2.411 2.411 0 0 0-.27-.66l1.52-1.54a4.622 4.622 0 0 1 .9 2.2h-2.15zm15.43-10.79v-5.57a1.807 1.807 0 0 0-1.52-1.79 72.613 72.613 0 0 1-7.52-1.48c-2.4-.75-11.69-4.72-14.9-5.46s-17.73-4.73-31.62.13c-2.35.82-12.92 5.93-19.14 8.58-1.83.04-19.96 3.85-20.93 6.46a41.82 41.82 0 0 0-1.44 4.55 10.825 10.825 0 0 0 1.34 6.05c1.38.78 4.02 1.31 7.07 1.66-.03-.19-.07-.37-.09-.56a7.726 7.726 0 0 1-.08-1.14 8.96 8.96 0 1 1 17.92 0c0 .26-.02.51-.04.76a8.067 8.067 0 0 1-.29 1.63h.03l44.47-.91-.06-.34a9.281 9.281 0 0 1-.07-1.14 8.96 8.96 0 1 1 17.92 0 .433.433 0 0 1-.01.05l.19-.01 7.61-1.45a6.527 6.527 0 0 0 2.91-5.86 5.2 5.2 0 0 0-1.75-4.16zm-44.12-5.28l-16.61.52c.31-2.52-1.17-3.08-1.17-3.08 6.6-6.05 19.91-6.25 19.91-6.25zm18.64-.76l-15.13.51 1.37-8.56c7.82-.1 12.29 1.64 12.29 1.64l2.23 3.64zm8.54-.06h-4.22l-4.22-5.84c3.17 1.27 5.7 2.52 7.21 3.31a2.4 2.4 0 0 1 1.23 2.53z" transform="translate(-1602.12 -5536.5)"/></svg>