<svg xmlns="http://www.w3.org/2000/svg" width="98.94" height="46.97" viewBox="0 0 98.94 46.97"><defs><style>.cls-1{fill:#8d99ae;fill-rule:evenodd}</style></defs><path id="Forma_1" data-name="Forma 1" class="cls-1" d="M919.052 5551.75a10.58 10.58 0 0 0-10.545 10.62 10.334 10.334 0 0 0 .094 1.34 10.528 10.528 0 0 0 20.95-.43c.024-.3.045-.6.045-.91a10.579 10.579 0 0 0-10.544-10.62zm-3.965 7.61l1.615 1.63a2.716 2.716 0 0 0-.287.7h-2.276a5.016 5.016 0 0 1 .948-2.33zm-.958 3.72h2.294a2.839 2.839 0 0 0 .287.69l-1.619 1.63a5.062 5.062 0 0 1-.962-2.32zm4.238 4.25a4.831 4.831 0 0 1-2.3-.97l1.608-1.62a2.43 2.43 0 0 0 .688.28v2.31zm0-7.61a2.5 2.5 0 0 0-.7.29l-1.612-1.62a4.881 4.881 0 0 1 2.312-.97v2.3zm1.372-2.3a4.872 4.872 0 0 1 2.312.97l-1.613 1.62a2.484 2.484 0 0 0-.7-.29v-2.3zm0 9.9v-2.3a2.412 2.412 0 0 0 .687-.28l1.609 1.62a4.818 4.818 0 0 1-2.296.96zm3.278-1.92l-1.624-1.63a2.865 2.865 0 0 0 .295-.69h2.276a4.987 4.987 0 0 1-.947 2.32zm-1.326-3.71a2.788 2.788 0 0 0-.287-.7l1.616-1.63a5.046 5.046 0 0 1 .947 2.33h-2.276zm62.465-9.94a10.581 10.581 0 0 0-10.545 10.62 10.334 10.334 0 0 0 .094 1.34 10.529 10.529 0 0 0 20.951-.43c.023-.3.045-.6.045-.91a10.58 10.58 0 0 0-10.545-10.62zm-3.965 7.61l1.615 1.63a2.751 2.751 0 0 0-.287.7h-2.275a5 5 0 0 1 .947-2.33zm-.957 3.72h2.294a2.836 2.836 0 0 0 .286.69l-1.619 1.63a5.05 5.05 0 0 1-.961-2.32zm4.237 4.25a4.823 4.823 0 0 1-2.3-.97l1.609-1.62a2.4 2.4 0 0 0 .687.28v2.31zm0-7.61a2.5 2.5 0 0 0-.7.29l-1.612-1.62a4.872 4.872 0 0 1 2.312-.97v2.3zm1.373-2.3a4.873 4.873 0 0 1 2.311.97l-1.612 1.62a2.521 2.521 0 0 0-.7-.29v-2.3zm0 9.9v-2.3a2.388 2.388 0 0 0 .685-.28l1.611 1.62a4.822 4.822 0 0 1-2.296.96zm3.277-1.92l-1.624-1.63a2.865 2.865 0 0 0 .3-.69h2.276a4.966 4.966 0 0 1-.952 2.32zm-1.326-3.71a2.751 2.751 0 0 0-.287-.7l1.616-1.63a5.036 5.036 0 0 1 .947 2.33H986.8zm-7-35.65l-28.29.36a1.545 1.545 0 0 0 0 3.09h.038l28.29-.36a1.545 1.545 0 0 0-.042-3.09zm-11.195 36.04h-33.4a1.55 1.55 0 0 0 0 3.1h33.4a1.55 1.55 0 0 0 0-3.1zm33.9-8.83a1.874 1.874 0 0 0-1.46-.69h-1.74l-1.774-19.57a2.057 2.057 0 0 0-2.082-1.88l-49.948.75a2.55 2.55 0 0 0-1.985 1l-6.621 8.57-21.679 1.35a3.786 3.786 0 0 0-2.921 1.68l-1.221 1.81a14.553 14.553 0 0 0-2.651 1.2 12.715 12.715 0 0 0-1.453 2.08.863.863 0 0 0-.059.89.844.844 0 0 0 .755.47v1.9h-1.8a1.864 1.864 0 0 0-1.855 1.87v3.44a2.311 2.311 0 0 0 2.3 2.32h1.233l3.178-8.83a2.024 2.024 0 0 1 1.9-1.34H923.7a2.023 2.023 0 0 1 1.6.8l7.472 9.88h39l5.473-9.3a2.01 2.01 0 0 1 1.735-1h10.186a2.03 2.03 0 0 1 1.744 1.01l5.366 9.29h1.925a4.249 4.249 0 0 0 4.162-3.44l.52-2.68a1.911 1.911 0 0 0-.383-1.58zm-47.515-9.85h-11.51v-3.56h-2.331l3.488-4.64a.791.791 0 0 1 .632-.32l11.675-.17v5.13zm19.032 0h-12.412v-8.76l14.969-.23v6.42zm6.4 0v-9.05l12.886-.19a.419.419 0 0 1 .418.39l.605 8.85h-13.912z" transform="translate(-904 -5526.03)"/></svg>